<?xml version="1.0" standalone="no"?><!DOCTYPE svg PUBLIC "-//W3C//DTD SVG 1.1//EN" "http://www.w3.org/Graphics/SVG/1.1/DTD/svg11.dtd"><svg t="1511598193830" class="icon" style="" viewBox="0 0 1024 1024" version="1.1" xmlns="http://www.w3.org/2000/svg" p-id="4846" xmlns:xlink="http://www.w3.org/1999/xlink" width="32" height="32"><defs><style type="text/css"></style></defs><path d="M231.180466 539.558957c2.426435 4.318609 4.185043 8.97113 7.880348 12.8 0.823652 0.667826 1.469217 1.157565 2.114783 1.825391 0.957217 0.823652 1.26887 2.181565 2.092521 2.982956l451.383652 448.890435a60.371478 60.371478 0 0 0 42.896696 17.942261c16.11687 0 32.389565-6.633739 44.477217-19.611826 23.707826-25.444174 23.062261-65.847652-1.602782-90.312348L373.182553 509.261913 782.025683 110.280348A65.29113 65.29113 0 0 0 784.474379 20.034783a60.549565 60.549565 0 0 0-87.529739-2.515479L241.309162 462.046609c-19.968 19.456-23.685565 49.374609-12.399305 73.683478 0.489739 1.335652 1.602783 2.470957 2.270609 3.82887" p-id="4847"></path></svg>