<?xml version="1.0" standalone="no"?><!DOCTYPE svg PUBLIC "-//W3C//DTD SVG 1.1//EN" "http://www.w3.org/Graphics/SVG/1.1/DTD/svg11.dtd"><svg t="1516713107855" class="icon" style="" viewBox="0 0 1024 1024" version="1.1" xmlns="http://www.w3.org/2000/svg" p-id="1027" xmlns:xlink="http://www.w3.org/1999/xlink" width="32" height="32"><defs><style type="text/css"></style></defs><path d="M895.341247 555.892673 126.610094 555.892673c-23.584138 0-42.707684-19.12457-42.707684-42.708707 0-23.585161 19.123546-42.707684 42.707684-42.707684l768.731152 0c23.564695 0 42.708707 19.123546 42.708707 42.707684C938.050977 536.76708 918.906965 555.892673 895.341247 555.892673zM895.341247 214.232223 126.610094 214.232223c-23.584138 0-42.707684-19.123546-42.707684-42.706661 0-23.585161 19.123546-42.707684 42.707684-42.707684l768.731152 0c23.564695 0 42.708707 19.122523 42.708707 42.707684C938.050977 195.1097 918.906965 214.232223 895.341247 214.232223zM126.610094 812.134685l768.731152 0c23.564695 0 42.708707 19.122523 42.708707 42.727127 0 23.564695-19.144012 42.708707-42.708707 42.708707L126.610094 897.570519c-23.584138 0-42.707684-19.144012-42.707684-42.708707C83.90241 831.256184 103.025956 812.134685 126.610094 812.134685z" p-id="1028"></path></svg>