<?xml version="1.0" standalone="no"?><!DOCTYPE svg PUBLIC "-//W3C//DTD SVG 1.1//EN" "http://www.w3.org/Graphics/SVG/1.1/DTD/svg11.dtd"><svg t="1512750469572" class="icon" style="" viewBox="0 0 1024 1024" version="1.1" xmlns="http://www.w3.org/2000/svg" p-id="3300" xmlns:xlink="http://www.w3.org/1999/xlink" width="32" height="32"><defs><style type="text/css"></style></defs><path d="M923.466667 95.466667c-9.6-8-22.133333-11.466667-34.666667-9.6l-512 85.333333c-20.533333 3.466667-35.733333 21.333333-35.733333 42.133333v469.333334H213.333333c-70.666667 0-128 57.333333-128 128s57.333333 128 128 128h85.333334c70.666667 0 128-57.333333 128-128V249.6l426.666666-71.2V597.333333h-128c-70.666667 0-128 57.333333-128 128s57.333333 128 128 128h85.333334c70.666667 0 128-57.333333 128-128V128c0-12.533333-5.6-24.533333-15.2-32.533333zM341.333333 810.666667c0 23.466667-19.2 42.666667-42.666666 42.666666h-85.333334c-23.466667 0-42.666667-19.2-42.666666-42.666666s19.2-42.666667 42.666666-42.666667h128v42.666667z m512-85.333334c0 23.466667-19.2 42.666667-42.666666 42.666667h-85.333334c-23.466667 0-42.666667-19.2-42.666666-42.666667s19.2-42.666667 42.666666-42.666666h128v42.666666z" p-id="3301"></path></svg>