<?xml version="1.0" standalone="no"?><!DOCTYPE svg PUBLIC "-//W3C//DTD SVG 1.1//EN" "http://www.w3.org/Graphics/SVG/1.1/DTD/svg11.dtd"><svg t="1511598834031" class="icon" style="" viewBox="0 0 1024 1024" version="1.1" xmlns="http://www.w3.org/2000/svg" p-id="6223" xmlns:xlink="http://www.w3.org/1999/xlink" width="32" height="32"><defs><style type="text/css"></style></defs><path d="M462.80363 315.814174c23.836847 0 33.605308-22.738842 23.951457-41.054962-3.780086-7.172339-10.485798-14.37026-19.413104-21.640836l-38.713642-31.530048c-10.270904-8.364488-25.37692-6.819299-33.742431 3.450582-8.364488 10.270904-6.819299 25.377943 3.450581 33.742431l16.656322 13.565943c-113.26442 21.62651-198.747156 118.635744-198.747156 235.412144 0 132.675477 110.387912 239.912635 246.238702 239.912635 13.245649 0 23.983179-10.73753 23.983179-23.984203s-10.73753-23.984203-23.983179-23.984202c-109.664436 0-198.27132-86.077275-198.27132-191.945254 0-105.906863 88.635536-191.94423 198.590591-191.94423zM807.754343 507.759428c0-132.675477-110.387912-239.912635-246.238702-239.912636-13.245649 0-23.984203 10.73753-23.984202 23.984203 0 13.245649 10.73753 23.984203 23.984202 23.984203 109.664436 0 198.27132 86.077275 198.27132 191.945253 0 105.876164-88.61507 191.945253-198.384906 191.945253-23.891082 0-32.121517 21.500644-25.185562 39.443259 2.998281 7.755622 8.851581 15.962521 16.709533 24.18477l35.408371 37.051797c9.151409 9.57608 24.333149 9.920934 33.909229 0.769525s9.920934-24.333149 0.769525-33.90923l-21.697118-22.705073c117.004597-18.556598 206.43831-117.357637 206.43831-236.781324z" fill="" p-id="6224"></path></svg>