<?xml version="1.0" standalone="no"?><!DOCTYPE svg PUBLIC "-//W3C//DTD SVG 1.1//EN" "http://www.w3.org/Graphics/SVG/1.1/DTD/svg11.dtd"><svg t="1512751114753" class="icon" style="" viewBox="0 0 1024 1024" version="1.1" xmlns="http://www.w3.org/2000/svg" p-id="6376" xmlns:xlink="http://www.w3.org/1999/xlink" width="32" height="32"><defs><style type="text/css"></style></defs><path d="M630.794082 493.464855c-0.039909-0.040932-0.075725-0.083911-0.115634-0.12382a26.855648 26.855648 0 0 0-4.604878-3.719718L375.572306 285.640576c-4.939499-6.65763-12.839423-11.002588-21.725814-11.050684a28.447912 28.447912 0 0 0-1.89721 0.061398 26.131147 26.131147 0 0 0-17.600866 7.768941c-0.423649 0.428765-0.823761 0.871857-1.212618 1.322112-3.828188 4.323469-6.231935 9.892301-6.461155 16.086373a27.313066 27.313066 0 0 0-0.022513 2.185782l0.224104 422.024779c0.079818 14.866592 12.622482 26.983561 27.487028 27.062356a26.566052 26.566052 0 0 0 22.031782-11.422144L625.3153 536.00574a26.371624 26.371624 0 0 0 5.946433-4.50664c10.285251-10.403954 10.285251-27.260877 0-37.653575l-0.467651-0.38067zM381.115556 666.544819l-0.164753-308.513516 189.069123 153.947208-188.90437 154.566308z m129.581264-662.270469c-281.464463 0-509.653559 228.175793-509.653559 509.651512 0 281.46344 228.189096 509.652536 509.653559 509.652536 281.476743 0 509.650489-228.189096 509.650489-509.652536 0-281.475719-228.172723-509.651512-509.650489-509.651512z m-0.279363 963.589119c-251.322979 0-455.050963-203.741287-455.050963-455.064267C55.366494 261.490549 259.094478 57.748239 510.417457 57.748239c251.324002 0 455.051987 203.742311 455.051987 455.050963-0.001023 251.322979-203.727984 455.064266-455.051987 455.064267zM666.431743 301.770951c-14.863523-0.078795-27.273157 11.493775-27.193339 26.358321l0.226151 368.728946c0.077771 14.864546 12.621459 26.983561 27.484981 27.061333 14.865569 0.079818 26.863834-11.904121 26.784017-26.782994l-0.226151-368.304273c-0.079818-14.863523-12.19781-26.981515-27.075659-27.061333z" fill="#2c2c2c" p-id="6377"></path></svg>