<?xml version="1.0" standalone="no"?><!DOCTYPE svg PUBLIC "-//W3C//DTD SVG 1.1//EN" "http://www.w3.org/Graphics/SVG/1.1/DTD/svg11.dtd"><svg t="1512751138908" class="icon" style="" viewBox="0 0 1024 1024" version="1.1" xmlns="http://www.w3.org/2000/svg" p-id="10081" xmlns:xlink="http://www.w3.org/1999/xlink" width="32" height="32"><defs><style type="text/css"></style></defs><path d="M511.715328 4.489216c-281.168896 0-509.094912 227.926016-509.094912 509.095936 0 281.155584 227.926016 509.093888 509.094912 509.093888 281.161728 0 509.094912-227.938304 509.094912-509.093888C1020.81024 232.415232 792.877056 4.489216 511.715328 4.489216zM511.430656 967.023616c-251.047936 0-454.559744-203.518976-454.559744-454.565888 0-251.035648 203.511808-454.5536 454.559744-454.5536s454.559744 203.518976 454.559744 454.5536C965.9904 763.50464 762.478592 967.023616 511.430656 967.023616zM666.975232 274.441216c-9.142272-0.049152-17.189888 4.476928-22.012928 11.42272L396.259328 490.103808c-2.107392 1.1776-4.09088 2.6624-5.878784 4.468736-10.28096 10.3936-10.28096 27.231232 0 37.61152l0.464896 0.376832c0.04096 0.04096 0.077824 0.084992 0.118784 0.125952 1.451008 1.466368 3.030016 2.719744 4.697088 3.77856L645.809152 739.300352c4.933632 6.634496 12.81536 10.959872 21.677056 10.998784 0.538624 0.003072 1.073152-0.014336 1.603584-0.04096 6.489088-0.182272 12.921856-2.766848 17.871872-7.769088 0.429056-0.433152 0.832512-0.881664 1.225728-1.337344 3.831808-4.328448 6.232064-9.908224 6.448128-16.114688 0.032768-0.657408 0.03584-1.314816 0.021504-1.973248l-0.226304-421.59104C694.352896 286.625792 681.82528 274.520064 666.975232 274.441216zM451.557376 513.994752 640.253952 359.037952l0.169984 308.092928L451.557376 513.994752zM354.731008 302.123008c-14.854144-0.079872-26.832896 11.906048-26.754048 26.754048l0.232448 367.438848c0.072704 14.861312 12.177408 26.966016 27.031552 27.031552 14.849024 0.079872 27.250688-11.4688 27.179008-26.3168l-0.232448-367.875072C382.108672 314.307584 369.580032 302.201856 354.731008 302.123008z" p-id="10082" fill="#2c2c2c"></path></svg>