<?xml version="1.0" standalone="no"?><!DOCTYPE svg PUBLIC "-//W3C//DTD SVG 1.1//EN" "http://www.w3.org/Graphics/SVG/1.1/DTD/svg11.dtd"><svg t="1516713148472" class="icon" style="" viewBox="0 0 1024 1024" version="1.1" xmlns="http://www.w3.org/2000/svg" p-id="1743" xmlns:xlink="http://www.w3.org/1999/xlink" width="32" height="32"><defs><style type="text/css"></style></defs><path d="M858.642928 714.391547c-110.48637 191.353143-355.150696 256.909208-546.542724 146.43614C120.760364 750.35462 55.189973 505.676991 165.66304 314.338175c110.48637-191.393052 355.163999-256.949116 546.542724-146.43614C903.545604 278.375102 969.115995 523.05273 858.642928 714.391547L858.642928 714.391547zM258.201643 507.076874c-14.310937 17.188474-11.139711 42.038442 5.249561 57.175187l167.634952 154.644079 8.714476 8.035c5.516644 5.103228 11.072173 9.447163 17.108656 12.964266 9.673313 5.583159 21.985734 9.660011 33.284057 8.647961 10.79281-0.986467 21.145599-6.15621 27.981285-15.456017l248.568239-337.282746c13.297864-18.054191 10.766205-43.437302-6.875594-57.294914l-23.904433-18.814508c-17.641799-13.857613-43.131333-10.04682-57.334823 6.875594L468.062302 578.309218 334.724481 478.562447c-17.60189-13.151531-42.865273-11.938913-57.175187 5.28947L258.201643 507.076874z" p-id="1744"></path></svg>