<?xml version="1.0" standalone="no"?><!DOCTYPE svg PUBLIC "-//W3C//DTD SVG 1.1//EN" "http://www.w3.org/Graphics/SVG/1.1/DTD/svg11.dtd"><svg t="1512749768009" class="icon" style="" viewBox="0 0 1024 1024" version="1.1" xmlns="http://www.w3.org/2000/svg" p-id="996" xmlns:xlink="http://www.w3.org/1999/xlink" width="32" height="32"><defs><style type="text/css"></style></defs><path d="M794.856448 907.993088l0-66.468864-0.825344 0c0.323584-5.497856 0.825344-10.995712 0.825344-16.581632L794.856448 542.485504l0-83.050496c0-155.978752-126.431232-282.40896-282.40896-282.40896-155.978752 0-282.409984 126.431232-282.409984 282.40896l0 83.050496 0 282.456064c0 5.586944 0.50688 11.0848 0.825344 16.581632l-0.825344 0 0 66.468864c0 0-166.148096-2.79552-166.148096-182.729728 0-102.109184 53.413888-147.093504 99.679232-166.97344l0-98.853888c0-192.669696 156.208128-348.877824 348.878848-348.877824 192.669696 0 348.877824 156.208128 348.877824 348.877824l0 98.853888c46.265344 19.879936 99.679232 64.864256 99.679232 166.97344C961.004544 905.196544 794.856448 907.993088 794.856448 907.993088zM296.459264 907.993088l-33.210368 0 0-365.50656 33.210368 0L296.459264 907.993088zM761.645056 907.993088l-33.210368 0 0-365.50656 33.210368 0L761.645056 907.993088z" p-id="997"></path></svg>