<?xml version="1.0" standalone="no"?><!DOCTYPE svg PUBLIC "-//W3C//DTD SVG 1.1//EN" "http://www.w3.org/Graphics/SVG/1.1/DTD/svg11.dtd"><svg t="1512918657127" class="icon" style="" viewBox="0 0 1024 1024" version="1.1" xmlns="http://www.w3.org/2000/svg" p-id="1010" xmlns:xlink="http://www.w3.org/1999/xlink" width="200" height="200"><defs><style type="text/css"></style></defs><path d="M512 1024c-282.304 0-512-229.696-512-512s229.696-512 512-512 512 229.696 512 512-229.696 512-512 512zM512 64c-247.04 0-448 200.96-448 448s200.96 448 448 448 448-200.96 448-448-200.96-448-448-448z" p-id="1011"></path><path d="M416 352l64 0 0 320-64 0 0-320z" p-id="1012"></path><path d="M544 352l64 0 0 320-64 0 0-320z" p-id="1013"></path></svg>