<?xml version="1.0" standalone="no"?><!DOCTYPE svg PUBLIC "-//W3C//DTD SVG 1.1//EN" "http://www.w3.org/Graphics/SVG/1.1/DTD/svg11.dtd"><svg t="1512918640817" class="icon" style="" viewBox="0 0 1024 1024" version="1.1" xmlns="http://www.w3.org/2000/svg" p-id="998" xmlns:xlink="http://www.w3.org/1999/xlink" width="200" height="200"><defs><style type="text/css"></style></defs><path d="M512 0C229.23 0 0 229.23 0 512c0 282.77 229.23 512 512 512 282.77 0 512-229.23 512-512C1024 229.23 794.77 0 512 0zM512 960C264.576 960 64 759.424 64 512S264.576 64 512 64s448 200.576 448 448S759.424 960 512 960z" p-id="999"></path><path d="M661.27 479.923c30.484 17.6 30.484 46.4 0 64L439.426 672.001C408.942 689.601 384 675.2 384 640L384 383.842c0-35.2 24.941-49.6 55.426-32L661.27 479.923z" p-id="1000"></path></svg>