<?xml version="1.0" standalone="no"?><!DOCTYPE svg PUBLIC "-//W3C//DTD SVG 1.1//EN" "http://www.w3.org/Graphics/SVG/1.1/DTD/svg11.dtd"><svg t="1512808056195" class="icon" style="" viewBox="0 0 1024 1024" version="1.1" xmlns="http://www.w3.org/2000/svg" p-id="993" xmlns:xlink="http://www.w3.org/1999/xlink" width="200" height="200"><defs><style type="text/css"></style></defs><path d="M957.470771 884.011712 719.107965 646.699842c45.185108-60.777225 71.940472-136.191822 71.940472-217.884402 0-201.260793-162.40995-364.423897-362.751814-364.423897-200.356191 0-362.766141 163.161057-362.766141 364.423897 0 201.274096 162.40995 364.450503 362.766141 364.450503 81.691557 0 157.074432-27.13501 217.71351-72.916706l237.201353 236.093113L957.470771 884.011712 957.470771 884.011712zM126.250402 428.816462c0-167.568437 135.227868-303.423591 302.046221-303.423591 166.803004 0 302.024731 135.856178 302.024731 303.423591 0 167.5756-135.221728 303.403125-302.024731 303.403125C261.480316 732.219587 126.250402 596.392062 126.250402 428.816462L126.250402 428.816462z" p-id="994"></path></svg>