<?xml version="1.0" standalone="no"?><!DOCTYPE svg PUBLIC "-//W3C//DTD SVG 1.1//EN" "http://www.w3.org/Graphics/SVG/1.1/DTD/svg11.dtd"><svg t="1511597578675" class="icon" style="" viewBox="0 0 1024 1024" version="1.1" xmlns="http://www.w3.org/2000/svg" p-id="3184" xmlns:xlink="http://www.w3.org/1999/xlink" width="32" height="32"><defs><style type="text/css"></style></defs><path d="M667.60704 399.60576c-3.15392 17.77664-2.048 51.11808 3.52256 56.79104a18.00192 18.00192 0 0 0 25.76384 0l63.36512-64.59392a18.80064 18.80064 0 0 0 0-26.23488l-63.36512-64.59392a17.98144 17.98144 0 0 0-25.76384 0c-6.0416 6.16448-6.88128 44.89216-2.68288 60.928-66.7648 10.32192-110.63296 68.89472-156.81536 130.7648-55.808 74.752-113.47968 156.24192-216.51456 156.24192h-63.488a18.41152 18.41152 0 0 0-18.2272 18.55488c0 10.26048 8.15104 18.57536 18.2272 18.57536h63.488c121.09824 0 190.0544-96.6656 245.47328-170.92608 42.98752-57.61024 78.09024-104.63232 127.01696-115.5072z m29.22496 185.9584a17.92 17.92 0 0 0-25.72288 0c-5.55008 5.632-6.71744 38.76864-3.60448 56.60672-43.68384-9.78944-76.3904-48.2304-113.5616-97.4848l-23.83872 29.2864c39.81312 52.1216 80.52736 97.23904 138.32192 106.1888-4.1984 16.0768-3.35872 54.72256 2.68288 60.86656a17.89952 17.89952 0 0 0 25.72288 0l63.3856-64.55296a18.78016 18.78016 0 0 0 0-26.27584l-63.3856-64.63488zM231.6288 392.66304h63.488c76.04224 0 127.36512 46.71488 171.45856 98.83648l24.61696-27.4432c-47.73888-55.13216-108.11392-108.544-196.07552-108.544h-63.488c-10.05568 0-18.2272 8.31488-18.2272 18.57536s8.15104 18.57536 18.2272 18.57536z" fill="#050505" p-id="3185"></path></svg>