<?xml version="1.0" standalone="no"?><!DOCTYPE svg PUBLIC "-//W3C//DTD SVG 1.1//EN" "http://www.w3.org/Graphics/SVG/1.1/DTD/svg11.dtd"><svg t="1511597700804" class="icon" style="" viewBox="0 0 1024 1024" version="1.1" xmlns="http://www.w3.org/2000/svg" p-id="4873" xmlns:xlink="http://www.w3.org/1999/xlink" width="32" height="32"><defs><style type="text/css"></style></defs><path d="M511.91808 747.52c-103.19872 0-190.09536-69.3248-216.86272-163.84h66.60096c6.3488-6.16448 9.64608-14.47936 3.31776-20.60288l-76.92288-77.7216a16.50688 16.50688 0 0 0-22.91712 0l-76.3904 77.7216c-9.07264 10.6496-3.01056 14.4384 3.31776 20.60288h61.0304c27.77088 117.32992 132.85376 204.8 258.82624 204.8 95.8464 0 179.6096-50.72896 226.57024-126.5664l-38.56384-15.40096a225.23904 225.23904 0 0 1-188.0064 101.00736z m321.24928-286.72h-58.22464c-19.7632-127.54944-129.82272-225.28-263.02464-225.28-102.72768 0-191.6928 58.14272-236.19584 143.17568l38.17472 15.2576a225.42336 225.42336 0 0 1 198.02112-117.47328c110.51008 0 202.30144 79.48288 221.5936 184.32H663.552c-6.36928 6.16448-12.3904 9.95328-3.31776 20.60288l76.36992 77.7216a16.5888 16.5888 0 0 0 22.91712 0l76.92288-77.7216c6.3488-6.16448 3.05152-14.4384-3.2768-20.60288z m-302.08-50.8928c0-7.04512-1.6384-10.56768-4.83328-10.56768-3.25632 0-6.90176 1.57696-10.93632 4.68992l-1.2288 1.16736c-14.58176 10.17856-29.98272 15.6672-46.16192 16.44544a11.264 11.264 0 0 1-4.85376 1.16736c-8.11008 0.79872-12.16512 3.13344-12.16512 7.04512 0 3.91168 3.66592 5.87776 10.93632 5.87776l15.79008-1.18784c12.14464 0.77824 19.84512 2.74432 23.08096 5.85728 1.61792 3.13344 2.41664 7.84384 2.41664 14.09024v127.91808c2.43712 18.75968-5.28384 27.7504-23.08096 26.95168a10.89536 10.89536 0 0 1-4.85376 1.20832c-10.5472 1.55648-15.79008 3.91168-15.79008 7.0656 0 4.68992 4.44416 7.04512 13.35296 7.04512h89.9072c7.2704 0 10.93632-2.7648 10.93632-8.21248-0.8192-4.68992-6.90176-7.0656-18.24768-7.0656-19.41504 1.59744-27.5456-7.04512-24.30976-25.8048v-173.6704h0.04096z" fill="#050505" p-id="4874"></path></svg>